<svg width="96" height="16" viewBox="0 0 96 16" fill="none" xmlns="http://www.w3.org/2000/svg">
<path fill-rule="evenodd" clip-rule="evenodd" d="M88 3.26L89.38 6.05L89.61 6.55L90.11 6.625L93.19 7.07L91 9.22L90.625 9.585L90.715 10.085L91.24 13.15L88.485 11.705L88 11.5L87.535 11.745L84.78 13.17L85.28 10.105L85.37 9.605L85 9.22L82.79 7.045L85.87 6.6L86.37 6.525L86.6 6.025L88 3.26ZM88 1L85.725 5.61L80.64 6.345L84.32 9.935L83.45 15L88 12.61L92.55 15L91.68 9.935L95.36 6.35L90.275 5.61L88 1Z" fill="black"/>
<path fill-rule="evenodd" clip-rule="evenodd" d="M8.00001 1L5.72501 5.61L0.640015 6.345L4.32001 9.935L3.45001 15L8.00001 12.61L12.55 15L11.68 9.935L15.36 6.35L10.275 5.61L8.00001 1Z" fill="black"/>
<path fill-rule="evenodd" clip-rule="evenodd" d="M28 1L25.725 5.61L20.64 6.345L24.32 9.935L23.45 15L28 12.61L32.55 15L31.68 9.935L35.36 6.35L30.275 5.61L28 1Z" fill="black"/>
<path fill-rule="evenodd" clip-rule="evenodd" d="M48 1L45.725 5.61L40.64 6.345L44.32 9.935L43.45 15L48 12.61L52.55 15L51.68 9.935L55.36 6.35L50.275 5.61L48 1Z" fill="black"/>
<path fill-rule="evenodd" clip-rule="evenodd" d="M68 1L65.725 5.61L60.64 6.345L64.32 9.935L63.45 15L68 12.61L72.55 15L71.68 9.935L75.36 6.35L70.275 5.61L68 1Z" fill="black"/>
<path fill-rule="evenodd" clip-rule="evenodd" d="M85.725 5.61L80.64 6.35L84.32 9.935L83.45 15L88 12.61V1L85.725 5.61Z" fill="black"/>
</svg>
