<?xml version="1.0" encoding="utf-8"?>
<!-- Generator: Adobe Illustrator 25.1.0, SVG Export Plug-In . SVG Version: 6.00 Build 0)  -->
<svg version="1.1" id="Layer_1" xmlns="http://www.w3.org/2000/svg" xmlns:xlink="http://www.w3.org/1999/xlink" x="0px" y="0px"
	 viewBox="0 0 44.3 20" style="enable-background:new 0 0 44.3 20;" xml:space="preserve">
<style type="text/css">
	.st0{fill:#020203;}
	.st1{fill-rule:evenodd;clip-rule:evenodd;fill:#0469DC;}
</style>
<path class="st0" d="M31.4,16l-4.1-5v5h-2.2V4.8h2.2v5l4.1-5h2.7l-4.6,5.5l4.7,5.6H31.4z"/>
<path class="st0" d="M43.4,8c0,1-0.3,1.7-0.9,2.3c-0.6,0.6-1.6,0.9-2.8,0.9h-2.3V16h-1.1V4.8h3.4c1.2,0,2.2,0.3,2.8,0.9
	C43.1,6.3,43.4,7.1,43.4,8z M39.7,10.3c1.7,0,2.6-0.7,2.6-2.2c0-0.7-0.2-1.3-0.6-1.7c-0.4-0.4-1.1-0.6-2-0.6h-2.3v4.5H39.7z"/>
<path class="st1" d="M11,2c-0.6,0-1,0.4-1,1v2H6V3c0-0.6-0.4-1-1-1H4C3.4,2,3,2.4,3,3v2H1C0.4,5,0,5.4,0,6v1c0,0.6,0.4,1,1,1h2v4H1
	c-0.6,0-1,0.4-1,1v1c0,0.6,0.4,1,1,1h2v2c0,0.6,0.4,1,1,1h1c0.6,0,1-0.4,1-1v-2h4v2c0,0.6,0.4,1,1,1h1c0.6,0,1-0.4,1-1v-2h2
	c0.6,0,1-0.4,1-1v-1c0-0.6-0.4-1-1-1h-2V8h2c0.6,0,1-0.4,1-1V6c0-0.6-0.4-1-1-1h-2V3c0-0.6-0.4-1-1-1H11z M10,12V8H6v4H10z"/>
</svg>
