<svg width="114" height="21" viewBox="0 0 114 21" fill="none" xmlns="http://www.w3.org/2000/svg">
<path d="M31.408 16L27.344 11.024V16H25.104V4.832H27.344V9.84L31.408 4.832H34.112L29.504 10.368L34.24 16H31.408ZM40.6254 7.008C41.6814 7.008 42.5347 7.344 43.1854 8.016C43.836 8.67733 44.1614 9.60533 44.1614 10.8V16H41.9214V11.104C41.9214 10.4 41.7454 9.86133 41.3934 9.488C41.0414 9.104 40.5614 8.912 39.9534 8.912C39.3347 8.912 38.844 9.104 38.4814 9.488C38.1294 9.86133 37.9534 10.4 37.9534 11.104V16H35.7134V7.136H37.9534V8.24C38.252 7.856 38.6307 7.55733 39.0894 7.344C39.5587 7.12 40.0707 7.008 40.6254 7.008ZM47.4275 6.08C47.0328 6.08 46.7022 5.95733 46.4355 5.712C46.1795 5.456 46.0515 5.14133 46.0515 4.768C46.0515 4.39467 46.1795 4.08533 46.4355 3.84C46.7022 3.584 47.0328 3.456 47.4275 3.456C47.8222 3.456 48.1475 3.584 48.4035 3.84C48.6702 4.08533 48.8035 4.39467 48.8035 4.768C48.8035 5.14133 48.6702 5.456 48.4035 5.712C48.1475 5.95733 47.8222 6.08 47.4275 6.08ZM48.5315 7.136V16H46.2915V7.136H48.5315ZM53.3526 8.976V13.264C53.3526 13.5627 53.422 13.7813 53.5606 13.92C53.71 14.048 53.9553 14.112 54.2966 14.112H55.3366V16H53.9286C52.0406 16 51.0966 15.0827 51.0966 13.248V8.976H50.0406V7.136H51.0966V4.944H53.3526V7.136H55.3366V8.976H53.3526ZM59.5558 8.976V13.264C59.5558 13.5627 59.6251 13.7813 59.7638 13.92C59.9131 14.048 60.1584 14.112 60.4998 14.112H61.5398V16H60.1318C58.2438 16 57.2998 15.0827 57.2998 13.248V8.976H56.2438V7.136H57.2998V4.944H59.5558V7.136H61.5398V8.976H59.5558ZM64.2869 6.08C63.8922 6.08 63.5615 5.95733 63.2949 5.712C63.0389 5.456 62.9109 5.14133 62.9109 4.768C62.9109 4.39467 63.0389 4.08533 63.2949 3.84C63.5615 3.584 63.8922 3.456 64.2869 3.456C64.6815 3.456 65.0069 3.584 65.2629 3.84C65.5295 4.08533 65.6629 4.39467 65.6629 4.768C65.6629 5.14133 65.5295 5.456 65.2629 5.712C65.0069 5.95733 64.6815 6.08 64.2869 6.08ZM65.3909 7.136V16H63.1509V7.136H65.3909ZM72.516 7.008C73.572 7.008 74.4253 7.344 75.076 8.016C75.7267 8.67733 76.052 9.60533 76.052 10.8V16H73.812V11.104C73.812 10.4 73.636 9.86133 73.284 9.488C72.932 9.104 72.452 8.912 71.844 8.912C71.2253 8.912 70.7347 9.104 70.372 9.488C70.02 9.86133 69.844 10.4 69.844 11.104V16H67.604V7.136H69.844V8.24C70.1427 7.856 70.5213 7.55733 70.98 7.344C71.4493 7.12 71.9613 7.008 72.516 7.008ZM81.6541 6.992C82.3155 6.992 82.8968 7.12533 83.3981 7.392C83.8995 7.648 84.2941 7.984 84.5821 8.4V7.136H86.8381V16.064C86.8381 16.8853 86.6728 17.616 86.3421 18.256C86.0115 18.9067 85.5155 19.4187 84.8541 19.792C84.1928 20.176 83.3928 20.368 82.4541 20.368C81.1955 20.368 80.1608 20.0747 79.3501 19.488C78.5501 18.9013 78.0968 18.1013 77.9901 17.088H80.2141C80.3315 17.4933 80.5821 17.8133 80.9661 18.048C81.3608 18.2933 81.8355 18.416 82.3901 18.416C83.0408 18.416 83.5688 18.2187 83.9741 17.824C84.3795 17.44 84.5821 16.8533 84.5821 16.064V14.688C84.2941 15.104 83.8941 15.4507 83.3821 15.728C82.8808 16.0053 82.3048 16.144 81.6541 16.144C80.9075 16.144 80.2248 15.952 79.6061 15.568C78.9875 15.184 78.4968 14.6453 78.1341 13.952C77.7821 13.248 77.6061 12.4427 77.6061 11.536C77.6061 10.64 77.7821 9.84533 78.1341 9.152C78.4968 8.45867 78.9821 7.92533 79.5901 7.552C80.2088 7.17867 80.8968 6.992 81.6541 6.992ZM84.5821 11.568C84.5821 11.024 84.4755 10.56 84.2621 10.176C84.0488 9.78133 83.7608 9.48267 83.3981 9.28C83.0355 9.06667 82.6461 8.96 82.2301 8.96C81.8141 8.96 81.4301 9.06133 81.0781 9.264C80.7261 9.46667 80.4381 9.76533 80.2141 10.16C80.0008 10.544 79.8941 11.0027 79.8941 11.536C79.8941 12.0693 80.0008 12.5387 80.2141 12.944C80.4381 13.3387 80.7261 13.6427 81.0781 13.856C81.4408 14.0693 81.8248 14.176 82.2301 14.176C82.6461 14.176 83.0355 14.0747 83.3981 13.872C83.7608 13.6587 84.0488 13.36 84.2621 12.976C84.4755 12.5813 84.5821 12.112 84.5821 11.568Z" fill="#020203"/>
<path d="M96.432 8.032C96.432 8.992 96.1173 9.76533 95.488 10.352C94.8587 10.9387 93.9147 11.232 92.656 11.232H90.4V16H89.28V4.816H92.656C93.904 4.816 94.8427 5.10933 95.472 5.696C96.112 6.28267 96.432 7.06133 96.432 8.032ZM92.656 10.272C94.4053 10.272 95.28 9.52533 95.28 8.032C95.28 7.28533 95.072 6.72 94.656 6.336C94.24 5.952 93.5733 5.76 92.656 5.76H90.4V10.272H92.656ZM99.4313 8.816C99.6766 8.272 100.05 7.85067 100.551 7.552C101.063 7.25333 101.687 7.104 102.423 7.104V8.272H102.119C101.309 8.272 100.658 8.49067 100.167 8.928C99.6766 9.36533 99.4313 10.096 99.4313 11.12V16H98.3113V7.264H99.4313V8.816ZM107.932 16.128C107.111 16.128 106.369 15.9467 105.708 15.584C105.057 15.2107 104.54 14.688 104.156 14.016C103.783 13.3333 103.596 12.5387 103.596 11.632C103.596 10.7253 103.788 9.936 104.172 9.264C104.556 8.58133 105.079 8.05867 105.74 7.696C106.401 7.32267 107.143 7.136 107.964 7.136C108.785 7.136 109.527 7.32267 110.188 7.696C110.86 8.05867 111.383 8.58133 111.756 9.264C112.14 9.936 112.332 10.7253 112.332 11.632C112.332 12.528 112.14 13.3173 111.756 14C111.372 14.6827 110.844 15.2107 110.172 15.584C109.5 15.9467 108.753 16.128 107.932 16.128ZM107.932 15.152C108.508 15.152 109.041 15.024 109.532 14.768C110.023 14.5013 110.417 14.1067 110.716 13.584C111.025 13.0507 111.18 12.4 111.18 11.632C111.18 10.864 111.031 10.2187 110.732 9.696C110.433 9.16267 110.039 8.768 109.548 8.512C109.057 8.24533 108.524 8.112 107.948 8.112C107.372 8.112 106.839 8.24533 106.348 8.512C105.857 8.768 105.463 9.16267 105.164 9.696C104.876 10.2187 104.732 10.864 104.732 11.632C104.732 12.4 104.876 13.0507 105.164 13.584C105.463 14.1067 105.852 14.5013 106.332 14.768C106.823 15.024 107.356 15.152 107.932 15.152Z" fill="#020203"/>
<path fill-rule="evenodd" clip-rule="evenodd" d="M11 2C10.4477 2 10 2.44772 10 3V5L6 5V3C6 2.44772 5.55228 2 5 2H4C3.44772 2 3 2.44772 3 3V5H1C0.447715 5 0 5.44772 0 6V7C0 7.55228 0.447715 8 1 8H3V12H1C0.447715 12 0 12.4477 0 13V14C0 14.5523 0.447715 15 1 15H3V17C3 17.5523 3.44772 18 4 18H5C5.55228 18 6 17.5523 6 17V15L10 15V17C10 17.5523 10.4477 18 11 18H12C12.5523 18 13 17.5523 13 17V15H15C15.5523 15 16 14.5523 16 14V13C16 12.4477 15.5523 12 15 12H13V8H15C15.5523 8 16 7.55228 16 7V6C16 5.44771 15.5523 5 15 5H13V3C13 2.44772 12.5523 2 12 2H11ZM10 12V8H6V12L10 12Z" fill="#0469DC"/>
</svg>
